<svg width="160" height="160" viewBox="0 0 160 160" fill="none" xmlns="http://www.w3.org/2000/svg">
<g clip-path="url(#clip0_418_369)">
<path d="M120 0H40C17.9086 0 0 17.9086 0 40V120C0 142.091 17.9086 160 40 160H120C142.091 160 160 142.091 160 120V40C160 17.9086 142.091 0 120 0Z" fill="#EEEEF4"/>
<path d="M64.3333 39.6667C64.3333 33.7756 59.5577 29 53.6667 29C47.7756 29 43 33.7756 43 39.6667V119.667C43 125.558 47.7756 130.333 53.6667 130.333C59.5577 130.333 64.3333 125.558 64.3333 119.667V39.6667Z" fill="#0C0C14"/>
<path d="M64.3335 79.6667C64.3335 50.3334 107 50.3334 107 79.6667" stroke="#0C0C14" stroke-width="21.3333" stroke-linecap="round"/>
<path d="M117.667 90.3334C117.667 84.4424 112.891 79.6667 107 79.6667C101.109 79.6667 96.3335 84.4424 96.3335 90.3334V119.667C96.3335 125.558 101.109 130.333 107 130.333C112.891 130.333 117.667 125.558 117.667 119.667V90.3334Z" fill="#6366F1"/>
</g>
<defs>
<clipPath id="clip0_418_369">
<rect width="160" height="160" fill="white"/>
</clipPath>
</defs>
</svg>
